<svg xmlns="http://www.w3.org/2000/svg" xmlns:xlink="http://www.w3.org/1999/xlink" width="500" zoomAndPan="magnify" viewBox="0 0 375 374.999991" height="500" preserveAspectRatio="xMidYMid meet" version="1.0"><defs><g/><clipPath id="b7c83b545b"><path d="M 121.929688 81.894531 L 253.070312 81.894531 L 253.070312 213.03125 L 121.929688 213.03125 Z M 121.929688 81.894531 " clip-rule="nonzero"/></clipPath><clipPath id="27bd193584"><path d="M 187.5 81.894531 C 151.289062 81.894531 121.929688 111.25 121.929688 147.464844 C 121.929688 183.675781 151.289062 213.03125 187.5 213.03125 C 223.710938 213.03125 253.070312 183.675781 253.070312 147.464844 C 253.070312 111.25 223.710938 81.894531 187.5 81.894531 " clip-rule="nonzero"/></clipPath><clipPath id="5f6a9a60ca"><path d="M 135 94.246094 L 241 94.246094 L 241 180 L 135 180 Z M 135 94.246094 " clip-rule="nonzero"/></clipPath><clipPath id="9a6a5cd78f"><path d="M 104.8125 160 L 270.511719 160 L 270.511719 188 L 104.8125 188 Z M 104.8125 160 " clip-rule="nonzero"/></clipPath><clipPath id="e7044066ab"><path d="M 139 195 L 237 195 L 237 196.246094 L 139 196.246094 Z M 139 195 " clip-rule="nonzero"/></clipPath></defs><g clip-path="url(#b7c83b545b)"><g clip-path="url(#27bd193584)"><path fill="#efefef" d="M 121.929688 81.894531 L 253.070312 81.894531 L 253.070312 213.03125 L 121.929688 213.03125 Z M 121.929688 81.894531 " fill-opacity="1" fill-rule="nonzero"/></g></g><g clip-path="url(#5f6a9a60ca)"><path fill="#ff914d" d="M 187.628906 94.246094 C 169.925781 94.25 153.410156 103.148438 143.683594 117.921875 L 180.027344 120.359375 L 141.382812 121.757812 C 138.867188 126.394531 137.0625 131.386719 136.035156 136.558594 L 180.355469 139.535156 L 135.328125 141.160156 C 135.128906 143.039062 135.023438 144.921875 135.023438 146.808594 C 135.023438 149.070312 135.167969 151.324219 135.460938 153.566406 L 162.816406 155.402344 L 135.902344 156.375 C 137.496094 164.984375 141.21875 173.054688 146.730469 179.863281 L 228.535156 179.863281 C 230.226562 177.777344 231.753906 175.5625 233.105469 173.246094 L 180.277344 171.335938 L 235.953125 167.601562 C 237.589844 163.796875 238.773438 159.816406 239.480469 155.738281 L 199.859375 154.308594 L 240.023438 151.613281 C 240.171875 150.015625 240.242188 148.410156 240.242188 146.804688 C 240.242188 141.691406 239.496094 136.609375 238.027344 131.710938 L 189.121094 129.945312 L 236.273438 126.78125 C 234.507812 122.5 232.183594 118.46875 229.363281 114.796875 L 191.105469 113.417969 L 226.203125 111.058594 C 216.253906 100.339844 202.277344 94.246094 187.636719 94.246094 C 187.632812 94.246094 187.628906 94.246094 187.628906 94.246094 Z M 187.628906 94.246094 " fill-opacity="1" fill-rule="nonzero"/></g><path fill="#000000" d="M 152.148438 120.636719 C 146.199219 120.589844 151.59375 126.960938 155.636719 133.953125 C 153.613281 130.226562 149.601562 122.453125 150.816406 121.714844 C 153.085938 120.335938 178.457031 127.515625 199.808594 148.1875 C 199.804688 148.292969 199.835938 148.359375 199.902344 148.367188 C 199.929688 148.371094 199.960938 148.367188 199.988281 148.359375 C 201.25 149.585938 202.5 150.863281 203.726562 152.1875 C 203.5 152.371094 203.3125 152.613281 203.269531 152.902344 C 203.148438 153.714844 202.742188 154.160156 203.351562 154.6875 C 203.957031 155.214844 205.945312 157.972656 206.757812 158.214844 C 207.570312 158.457031 208.136719 157.972656 208.136719 157.972656 C 208.136719 157.972656 207.652344 159.957031 207.324219 161.214844 C 207.003906 162.46875 203.671875 167.457031 203.390625 168.105469 C 203.109375 168.753906 202.742188 170.011719 202.945312 170.253906 C 203.152344 170.496094 204.003906 170.902344 203.796875 171.265625 C 203.597656 171.632812 203.070312 172.199219 203.191406 172.566406 C 203.3125 172.929688 203.597656 175.035156 203.476562 175.765625 C 203.351562 176.496094 202.378906 176.050781 202.582031 176.414062 C 202.785156 176.777344 203.554688 177.023438 203.554688 177.023438 C 203.554688 177.023438 203.230469 177.992188 203.433594 178.15625 C 203.636719 178.320312 203.71875 178.683594 203.71875 178.683594 C 203.71875 178.683594 201.28125 180.386719 201.039062 180.871094 C 200.796875 181.359375 199.660156 181.480469 202.785156 181.601562 C 205.90625 181.722656 207.285156 182.25 207.367188 181.601562 C 207.445312 180.953125 207.003906 179.414062 207.003906 179.414062 C 207.003906 179.414062 206.394531 177.226562 207.324219 175.96875 L 207.8125 175.726562 C 207.8125 175.726562 208.097656 177.710938 209.027344 178.402344 C 209.964844 179.089844 210.207031 180.710938 210.53125 180.996094 C 210.851562 181.28125 210.730469 182.414062 211.015625 182.617188 C 211.300781 182.820312 211.382812 182.941406 211.179688 183.226562 C 210.976562 183.507812 207.730469 184.925781 207.855469 185.210938 C 207.976562 185.496094 212.886719 185.617188 215.84375 185.007812 C 215.84375 185.007812 214.546875 180.710938 214.058594 179.539062 C 213.574219 178.363281 212.601562 175.160156 212.195312 174.308594 C 211.789062 173.460938 211.015625 172.769531 211.015625 172.769531 C 211.015625 172.769531 211.949219 171.472656 212.152344 171.105469 C 212.355469 170.742188 211.949219 169.527344 213.328125 166.730469 C 213.328125 166.730469 213.492188 165.59375 213.738281 165.230469 C 213.980469 164.863281 215.402344 163.730469 216.089844 162.230469 C 216.777344 160.730469 215.886719 157.730469 215.886719 157.082031 C 215.886719 156.433594 216.292969 154.976562 216.292969 154.976562 C 216.292969 154.976562 217.351562 151.410156 218.402344 149.992188 L 217.023438 149.382812 C 217.023438 149.382812 217.996094 143.140625 214.425781 143.261719 C 214.425781 143.261719 212.96875 140.386719 212.925781 139.292969 C 212.886719 138.199219 211.546875 136.457031 209.679688 136.859375 C 207.816406 137.261719 206.878906 138.398438 207.207031 139.738281 C 207.207031 139.738281 206.070312 140.386719 206.234375 140.871094 C 206.398438 141.359375 207.449219 140.671875 207.449219 140.671875 C 207.449219 140.671875 207.894531 142.453125 208.421875 143.101562 C 208.953125 143.753906 209.074219 144.722656 209.722656 144.96875 C 210.371094 145.210938 210.859375 145.78125 210.777344 146.144531 C 210.777344 146.144531 210.171875 147.359375 209.886719 147.644531 C 209.601562 147.929688 209.234375 148.535156 209.234375 148.535156 C 209.234375 148.535156 207.449219 148.210938 206.152344 147.402344 C 204.855469 146.589844 202.136719 145.65625 201.207031 146.144531 C 200.828125 146.339844 200.488281 146.734375 200.234375 147.136719 C 184.078125 131.734375 163.261719 122.582031 157.269531 121.503906 C 155.023438 120.914062 153.355469 120.644531 152.148438 120.636719 Z M 155.636719 133.953125 C 156.28125 135.144531 156.726562 135.929688 156.726562 135.929688 C 156.378906 135.265625 156.011719 134.605469 155.636719 133.953125 Z M 200.875 147.636719 C 200.875 147.636719 200.859375 147.671875 200.835938 147.714844 C 200.832031 147.707031 200.828125 147.707031 200.824219 147.699219 C 200.855469 147.664062 200.875 147.636719 200.875 147.636719 Z M 203.128906 148.308594 C 203.351562 148.308594 203.5625 148.335938 203.757812 148.40625 C 204.648438 148.730469 206.71875 150.433594 207.855469 150.960938 L 208.460938 151.246094 C 208.460938 151.246094 207.570312 153.355469 207.082031 153.882812 C 207.003906 153.96875 206.90625 154.042969 206.804688 154.097656 C 206.496094 153.734375 206.1875 153.371094 205.871094 153.011719 C 205.96875 152.765625 206.019531 152.535156 205.867188 152.300781 C 205.542969 151.8125 205.09375 152.054688 204.851562 151.855469 C 204.84375 151.847656 204.839844 151.847656 204.832031 151.84375 C 203.792969 150.699219 202.722656 149.582031 201.628906 148.492188 C 202.070312 148.433594 202.617188 148.300781 203.128906 148.308594 Z M 203.128906 148.308594 " fill-opacity="1" fill-rule="nonzero"/><path fill="#000000" d="M 260.433594 187.289062 C 260.433594 187.808594 227.84375 188.230469 187.640625 188.230469 C 147.4375 188.230469 114.84375 187.808594 114.84375 187.289062 C 114.84375 186.765625 147.4375 186.34375 187.640625 186.34375 C 227.84375 186.34375 260.433594 186.769531 260.433594 187.289062 Z M 260.433594 187.289062 " fill-opacity="1" fill-rule="nonzero"/><g clip-path="url(#9a6a5cd78f)"><path fill="#000000" d="M 246.132812 174.28125 C 247.359375 173.929688 248.9375 173.8125 248.9375 173.8125 C 248.9375 173.8125 251.105469 172.585938 252.152344 172 C 253.207031 171.417969 261.921875 166.042969 261.921875 166.042969 C 266.425781 162.242188 267.363281 160.257812 267.363281 160.257812 L 270.40625 160.371094 L 268.648438 166.800781 C 259.523438 181.875 243.847656 186.800781 243.847656 186.800781 C 214.070312 187.792969 127.328125 187.078125 127.328125 187.078125 L 127.09375 177.902344 C 123.523438 174.101562 108.316406 166.449219 108.023438 166.214844 C 107.730469 165.980469 104.863281 161.132812 104.863281 161.132812 L 106.972656 160.023438 C 135.371094 175.878906 193.785156 185.027344 246.132812 174.28125 Z M 246.132812 174.28125 " fill-opacity="1" fill-rule="nonzero"/></g><path fill="#000000" d="M 254.144531 191.421875 C 254.144531 191.894531 224.367188 192.28125 187.636719 192.28125 C 150.902344 192.28125 121.128906 191.894531 121.128906 191.421875 C 121.128906 190.949219 150.902344 190.5625 187.636719 190.5625 C 224.367188 190.5625 254.144531 190.945312 254.144531 191.421875 Z M 254.144531 191.421875 " fill-opacity="1" fill-rule="nonzero"/><g clip-path="url(#e7044066ab)"><path fill="#000000" d="M 236.082031 195.628906 C 236.082031 195.972656 214.394531 196.253906 187.640625 196.253906 C 160.882812 196.253906 139.195312 195.972656 139.195312 195.628906 C 139.195312 195.28125 160.882812 195 187.640625 195 C 214.394531 195 236.082031 195.28125 236.082031 195.628906 Z M 236.082031 195.628906 " fill-opacity="1" fill-rule="nonzero"/></g><g fill="#000000" fill-opacity="1"><g transform="translate(62.589389, 270.485301)"><g><path d="M 14.582031 -30.636719 L 7.265625 -30.636719 L 7.265625 -21.160156 L 12.175781 -21.160156 L 12.175781 -15.710938 L 7.265625 -15.710938 L 7.265625 0 L 1.964844 0 L 1.964844 -36.085938 L 14.582031 -36.085938 Z M 14.582031 -30.636719 "/></g></g></g><g fill="#000000" fill-opacity="1"><g transform="translate(87.184821, 270.485301)"><g><path d="M 1.964844 -36.085938 L 7.265625 -36.085938 L 7.265625 0 L 1.964844 0 Z M 1.964844 -36.085938 "/></g></g></g><g fill="#000000" fill-opacity="1"><g transform="translate(106.233108, 270.485301)"><g><path d="M 7.5625 -18.804688 L 7.117188 -20.472656 L 6.824219 -20.472656 L 6.824219 0 L 1.964844 0 L 1.964844 -36.085938 L 6.675781 -36.085938 L 11.832031 -17.28125 L 12.273438 -15.613281 L 12.566406 -15.613281 L 12.566406 -36.085938 L 17.429688 -36.085938 L 17.429688 0 L 12.714844 0 Z M 7.5625 -18.804688 "/></g></g></g><g fill="#000000" fill-opacity="1"><g transform="translate(135.442977, 270.485301)"><g><path d="M 1.765625 -15.5625 L 8.886719 -15.5625 L 8.886719 -10.898438 L 1.765625 -10.898438 Z M 1.765625 -15.5625 "/></g></g></g><g fill="#000000" fill-opacity="1"><g transform="translate(155.914865, 270.485301)"><g><path d="M 14.582031 -30.636719 L 7.265625 -30.636719 L 7.265625 -21.160156 L 12.175781 -21.160156 L 12.175781 -15.710938 L 7.265625 -15.710938 L 7.265625 0 L 1.964844 0 L 1.964844 -36.085938 L 14.582031 -36.085938 Z M 14.582031 -30.636719 "/></g></g></g><g fill="#000000" fill-opacity="1"><g transform="translate(180.5103, 270.485301)"><g><path d="M 0.492188 0 L 5.941406 -36.085938 L 12.421875 -36.085938 L 17.871094 0 L 12.714844 0 L 11.734375 -7.363281 L 6.628906 -7.363281 L 5.644531 0 Z M 9.476562 -24.351562 L 9.328125 -25.285156 L 9.035156 -25.285156 L 8.886719 -24.351562 L 7.363281 -12.960938 L 10.996094 -12.960938 Z M 9.476562 -24.351562 "/></g></g></g><g fill="#000000" fill-opacity="1"><g transform="translate(208.689291, 270.485301)"><g><path d="M 11.4375 0 L 8.691406 -15.21875 L 7.265625 -15.21875 L 7.265625 0 L 1.964844 0 L 1.964844 -36.085938 L 7.265625 -36.085938 C 13.597656 -36.085938 16.300781 -32.5 16.300781 -25.675781 C 16.300781 -22.09375 15.367188 -18.851562 13.355469 -17.476562 L 16.742188 0 Z M 7.265625 -20.128906 C 8.003906 -20.128906 8.984375 -20.226562 9.769531 -20.914062 C 10.554688 -21.601562 11.195312 -22.925781 11.195312 -25.480469 C 11.195312 -28.035156 10.554688 -29.40625 9.769531 -30.09375 C 8.984375 -30.78125 8.003906 -30.832031 7.265625 -30.832031 Z M 7.265625 -20.128906 "/></g></g></g><g fill="#000000" fill-opacity="1"><g transform="translate(236.230115, 270.485301)"><g><path d="M 10.75 0 L 7.363281 -22.683594 L 7.167969 -24.203125 L 6.875 -24.203125 L 6.875 0 L 1.964844 0 L 1.964844 -36.085938 L 8.445312 -36.085938 L 11.585938 -19.589844 L 11.832031 -17.675781 L 11.929688 -17.675781 L 12.175781 -19.589844 L 15.316406 -36.085938 L 21.796875 -36.085938 L 21.796875 0 L 16.890625 0 L 16.890625 -24.203125 L 16.59375 -24.203125 L 16.398438 -22.683594 L 13.011719 0 Z M 10.75 0 "/></g></g></g><g fill="#000000" fill-opacity="1"><g transform="translate(269.808966, 270.485301)"><g><path d="M 1.964844 -36.085938 L 14.089844 -36.085938 L 14.089844 -30.636719 L 7.265625 -30.636719 L 7.265625 -21.160156 L 12.175781 -21.160156 L 12.175781 -15.367188 L 7.265625 -15.367188 L 7.265625 -5.449219 L 14.089844 -5.449219 L 14.089844 0 L 1.964844 0 Z M 1.964844 -36.085938 "/></g></g></g><g fill="#000000" fill-opacity="1"><g transform="translate(294.698926, 270.485301)"><g><path d="M 11.4375 0 L 8.691406 -15.21875 L 7.265625 -15.21875 L 7.265625 0 L 1.964844 0 L 1.964844 -36.085938 L 7.265625 -36.085938 C 13.597656 -36.085938 16.300781 -32.5 16.300781 -25.675781 C 16.300781 -22.09375 15.367188 -18.851562 13.355469 -17.476562 L 16.742188 0 Z M 7.265625 -20.128906 C 8.003906 -20.128906 8.984375 -20.226562 9.769531 -20.914062 C 10.554688 -21.601562 11.195312 -22.925781 11.195312 -25.480469 C 11.195312 -28.035156 10.554688 -29.40625 9.769531 -30.09375 C 8.984375 -30.78125 8.003906 -30.832031 7.265625 -30.832031 Z M 7.265625 -20.128906 "/></g></g></g><g fill="#cd7641" fill-opacity="1"><g transform="translate(167.929755, 226.270005)"><g><path d="M 2.609375 -6.546875 L 0.046875 -6.546875 L 0.046875 -7.46875 L 6.21875 -7.46875 L 6.21875 -6.546875 L 3.65625 -6.546875 L 3.65625 0 L 2.609375 0 Z M 2.609375 -6.546875 "/></g></g></g><g fill="#cd7641" fill-opacity="1"><g transform="translate(182.72176, 226.270005)"><g><path d="M 7.546875 -7.46875 L 7.546875 0 L 6.484375 0 L 6.484375 -3.328125 L 2.1875 -3.328125 L 2.1875 0 L 1.125 0 L 1.125 -7.46875 L 2.1875 -7.46875 L 2.1875 -4.265625 L 6.484375 -4.265625 L 6.484375 -7.46875 Z M 7.546875 -7.46875 "/></g></g></g><g fill="#cd7641" fill-opacity="1"><g transform="translate(199.913191, 226.270005)"><g><path d="M 6.546875 -0.921875 L 6.546875 0 L 1.125 0 L 1.125 -7.46875 L 6.390625 -7.46875 L 6.390625 -6.546875 L 2.1875 -6.546875 L 2.1875 -4.25 L 5.9375 -4.25 L 5.9375 -3.34375 L 2.1875 -3.34375 L 2.1875 -0.921875 Z M 6.546875 -0.921875 "/></g></g></g></svg>