<svg xmlns="http://www.w3.org/2000/svg" xmlns:xlink="http://www.w3.org/1999/xlink" width="500" zoomAndPan="magnify" viewBox="0 0 375 374.999991" height="500" preserveAspectRatio="xMidYMid meet" version="1.0"><defs><g/><clipPath id="254d37bf19"><path d="M 124.515625 83.441406 L 247.515625 83.441406 L 247.515625 233.441406 L 124.515625 233.441406 Z M 124.515625 83.441406 " clip-rule="nonzero"/></clipPath></defs><g fill="#ffffff" fill-opacity="1"><g transform="translate(139.776081, 278.865202)"><g><path d="M 2.726562 0 L 4.0625 -4.71875 C 4.289062 -5.527344 4.894531 -6.609375 5.449219 -7.015625 C 6.914062 -8.074219 8.503906 -8.578125 10.117188 -8.578125 C 12.96875 -8.578125 16.753906 -6.886719 17.988281 -4.113281 L 19.832031 0 L 22.050781 0 L 10.800781 -25.230469 L 8.578125 -25.230469 L 9.109375 -24.046875 L 0.503906 0 Z M 5.476562 -9.5625 L 9.058594 -22.027344 C 9.183594 -22.429688 9.335938 -22.632812 9.511719 -22.632812 C 9.664062 -22.632812 9.839844 -22.457031 9.992188 -22.101562 L 16.5 -7.519531 C 16.804688 -6.835938 16.652344 -6.710938 16.074219 -7.191406 C 14.15625 -8.753906 11.734375 -9.890625 9.359375 -9.890625 C 8.25 -9.890625 7.164062 -9.636719 6.15625 -9.082031 C 5.902344 -8.957031 5.726562 -8.882812 5.601562 -8.882812 C 5.375 -8.882812 5.347656 -9.109375 5.476562 -9.5625 Z M 5.476562 -9.5625 "/></g></g></g><g fill="#ffffff" fill-opacity="1"><g transform="translate(161.902532, 278.865202)"><g><path d="M 13.851562 0.480469 C 14.582031 0.480469 15.289062 0.402344 15.996094 0.304688 C 16.753906 0.203125 17.5625 0.453125 18.089844 0.984375 C 19.933594 2.824219 21.902344 3.9375 24.550781 3.9375 C 26.113281 3.9375 27.730469 2.75 27.730469 1.1875 C 27.730469 0.480469 27.425781 -0.253906 26.570312 -0.226562 C 26.695312 0.984375 25.40625 2.347656 23.011719 2.347656 C 21.21875 2.347656 19.882812 1.714844 18.722656 0.730469 C 18.167969 0.253906 18.269531 -0.226562 19 -0.554688 C 23.363281 -2.496094 26.46875 -6.835938 26.46875 -12.640625 C 26.46875 -20.511719 20.789062 -25.761719 13.851562 -25.761719 C 6.914062 -25.761719 1.261719 -20.511719 1.261719 -12.640625 C 1.261719 -4.769531 6.914062 0.480469 13.851562 0.480469 Z M 3.28125 -12.640625 C 3.28125 -20.210938 8.023438 -25.257812 13.851562 -25.257812 C 19.679688 -25.257812 24.449219 -20.210938 24.449219 -12.640625 C 24.449219 -7.242188 22 -3.101562 18.46875 -1.1875 C 18.242188 -1.058594 18.015625 -1.007812 17.789062 -1.007812 C 17.308594 -1.007812 16.855469 -1.238281 16.527344 -1.640625 C 16.300781 -1.917969 16.074219 -2.21875 15.84375 -2.523438 C 13.828125 -5.222656 11.859375 -9.335938 8.402344 -9.335938 C 6.433594 -9.335938 5.527344 -8.097656 5.121094 -6.964844 C 4.996094 -6.585938 4.84375 -6.382812 4.71875 -6.382812 C 4.59375 -6.382812 4.464844 -6.535156 4.339844 -6.863281 C 3.660156 -8.554688 3.28125 -10.496094 3.28125 -12.640625 Z M 5.449219 -6.183594 C 5.675781 -7.417969 6.382812 -8.804688 8.328125 -8.804688 C 10.699219 -8.804688 12.414062 -6.460938 13.5 -4.921875 C 14.382812 -3.660156 15.1875 -2.496094 15.996094 -1.464844 C 16.476562 -0.859375 16.273438 -0.304688 15.542969 -0.175781 C 14.988281 -0.0742188 14.433594 -0.0234375 13.851562 -0.0234375 C 10.75 -0.0234375 7.972656 -1.4375 6.054688 -3.886719 C 5.550781 -4.515625 5.324219 -5.476562 5.449219 -6.183594 Z M 5.449219 -6.183594 "/></g></g></g><g fill="#ffffff" fill-opacity="1"><g transform="translate(189.756121, 278.865202)"><g><path d="M 11.582031 0.503906 C 15.921875 0.503906 19.605469 -0.78125 21.320312 -3.078125 L 21.320312 -25.230469 L 19.300781 -25.230469 L 19.300781 -5.777344 C 19.300781 -0.480469 14.027344 0 11.582031 0 C 9.109375 0 3.859375 -1.007812 3.859375 -6.308594 L 3.859375 -10.824219 C 3.859375 -12.691406 3.910156 -25.230469 3.910156 -25.230469 L 1.890625 -25.230469 L 1.890625 -7.367188 C 1.890625 -3.101562 4.414062 0.503906 11.582031 0.503906 Z M 11.582031 0.503906 "/></g></g></g><g fill="#ffffff" fill-opacity="1"><g transform="translate(213.093598, 278.865202)"><g><path d="M 2.726562 0 L 4.0625 -4.71875 C 4.289062 -5.527344 4.894531 -6.609375 5.449219 -7.015625 C 6.914062 -8.074219 8.503906 -8.578125 10.117188 -8.578125 C 12.96875 -8.578125 16.753906 -6.886719 17.988281 -4.113281 L 19.832031 0 L 22.050781 0 L 10.800781 -25.230469 L 8.578125 -25.230469 L 9.109375 -24.046875 L 0.503906 0 Z M 5.476562 -9.5625 L 9.058594 -22.027344 C 9.183594 -22.429688 9.335938 -22.632812 9.511719 -22.632812 C 9.664062 -22.632812 9.839844 -22.457031 9.992188 -22.101562 L 16.5 -7.519531 C 16.804688 -6.835938 16.652344 -6.710938 16.074219 -7.191406 C 14.15625 -8.753906 11.734375 -9.890625 9.359375 -9.890625 C 8.25 -9.890625 7.164062 -9.636719 6.15625 -9.082031 C 5.902344 -8.957031 5.726562 -8.882812 5.601562 -8.882812 C 5.375 -8.882812 5.347656 -9.109375 5.476562 -9.5625 Z M 5.476562 -9.5625 "/></g></g></g><g fill="#ffffff" fill-opacity="1"><g transform="translate(158.3956, 290.341703)"><g><path d="M 3.296875 -6.734375 C 3.617188 -6.734375 3.941406 -6.679688 4.265625 -6.578125 C 4.585938 -6.472656 4.878906 -6.320312 5.140625 -6.125 L 5.0625 -5.9375 L 5 -5.9375 C 4.757812 -6.125 4.492188 -6.269531 4.203125 -6.375 C 3.910156 -6.476562 3.609375 -6.53125 3.296875 -6.53125 C 2.460938 -6.53125 1.820312 -6.253906 1.375 -5.703125 C 0.9375 -5.148438 0.71875 -4.359375 0.71875 -3.328125 C 0.71875 -2.304688 0.925781 -1.519531 1.34375 -0.96875 C 1.769531 -0.425781 2.378906 -0.15625 3.171875 -0.15625 C 3.503906 -0.15625 3.835938 -0.21875 4.171875 -0.34375 C 4.503906 -0.46875 4.8125 -0.640625 5.09375 -0.859375 L 5.15625 -0.84375 L 5.140625 -0.65625 C 4.847656 -0.425781 4.53125 -0.25 4.1875 -0.125 C 3.84375 -0.0078125 3.503906 0.046875 3.171875 0.046875 C 2.304688 0.046875 1.644531 -0.242188 1.1875 -0.828125 C 0.726562 -1.410156 0.5 -2.242188 0.5 -3.328125 C 0.5 -4.421875 0.738281 -5.257812 1.21875 -5.84375 C 1.707031 -6.4375 2.398438 -6.734375 3.296875 -6.734375 Z M 3.296875 -6.734375 "/></g></g></g><g fill="#ffffff" fill-opacity="1"><g transform="translate(167.299502, 290.341703)"><g><path d="M 5.53125 -2.40625 C 5.550781 -1.632812 5.359375 -1.03125 4.953125 -0.59375 C 4.546875 -0.164062 3.96875 0.046875 3.21875 0.046875 C 2.46875 0.046875 1.894531 -0.160156 1.5 -0.578125 C 1.101562 -1.003906 0.90625 -1.613281 0.90625 -2.40625 L 0.90625 -6.703125 L 1.109375 -6.703125 L 1.109375 -2.40625 C 1.109375 -1.6875 1.289062 -1.132812 1.65625 -0.75 C 2.019531 -0.363281 2.539062 -0.171875 3.21875 -0.171875 C 3.894531 -0.171875 4.414062 -0.363281 4.78125 -0.75 C 5.144531 -1.132812 5.328125 -1.6875 5.328125 -2.40625 L 5.328125 -6.703125 L 5.53125 -6.703125 Z M 5.53125 -2.40625 "/></g></g></g><g fill="#ffffff" fill-opacity="1"><g transform="translate(177.138566, 290.341703)"><g><path d="M 4.125 -0.171875 L 4.09375 0 L 1.140625 0 L 1.140625 -6.703125 L 1.359375 -6.703125 L 1.359375 -0.203125 L 4.09375 -0.203125 Z M 4.125 -0.171875 "/></g></g></g><g fill="#ffffff" fill-opacity="1"><g transform="translate(184.729042, 290.341703)"><g><path d="M 4.703125 -6.65625 L 4.65625 -6.484375 L 2.609375 -6.484375 L 2.609375 0 L 2.390625 0 L 2.390625 -6.484375 L 0.328125 -6.484375 L 0.296875 -6.53125 L 0.34375 -6.703125 L 4.671875 -6.703125 Z M 4.703125 -6.65625 "/></g></g></g><g fill="#ffffff" fill-opacity="1"><g transform="translate(193.128583, 290.341703)"><g><path d="M 5.53125 -2.40625 C 5.550781 -1.632812 5.359375 -1.03125 4.953125 -0.59375 C 4.546875 -0.164062 3.96875 0.046875 3.21875 0.046875 C 2.46875 0.046875 1.894531 -0.160156 1.5 -0.578125 C 1.101562 -1.003906 0.90625 -1.613281 0.90625 -2.40625 L 0.90625 -6.703125 L 1.109375 -6.703125 L 1.109375 -2.40625 C 1.109375 -1.6875 1.289062 -1.132812 1.65625 -0.75 C 2.019531 -0.363281 2.539062 -0.171875 3.21875 -0.171875 C 3.894531 -0.171875 4.414062 -0.363281 4.78125 -0.75 C 5.144531 -1.132812 5.328125 -1.6875 5.328125 -2.40625 L 5.328125 -6.703125 L 5.53125 -6.703125 Z M 5.53125 -2.40625 "/></g></g></g><g fill="#ffffff" fill-opacity="1"><g transform="translate(202.967646, 290.341703)"><g><path d="M 3 -2.8125 C 3.539062 -1.914062 4.175781 -0.992188 4.90625 -0.046875 L 4.90625 -0.015625 C 4.863281 0.0234375 4.820312 0.0546875 4.78125 0.078125 L 4.71875 0.046875 C 3.957031 -0.929688 3.3125 -1.867188 2.78125 -2.765625 L 1.359375 -2.765625 L 1.359375 0 L 1.15625 0 L 1.15625 -6.703125 L 2.640625 -6.71875 C 3.242188 -6.71875 3.710938 -6.554688 4.046875 -6.234375 C 4.378906 -5.921875 4.546875 -5.46875 4.546875 -4.875 C 4.546875 -4.351562 4.410156 -3.914062 4.140625 -3.5625 C 3.878906 -3.207031 3.5 -2.957031 3 -2.8125 Z M 1.359375 -2.96875 L 2.859375 -2.96875 C 3.328125 -3.09375 3.6875 -3.316406 3.9375 -3.640625 C 4.195312 -3.972656 4.328125 -4.382812 4.328125 -4.875 C 4.328125 -5.394531 4.1875 -5.796875 3.90625 -6.078125 C 3.625 -6.359375 3.226562 -6.5 2.71875 -6.5 L 1.359375 -6.5 Z M 1.359375 -2.96875 "/></g></g></g><g fill="#ffffff" fill-opacity="1"><g transform="translate(211.819013, 290.341703)"><g><path d="M 4.46875 -0.171875 L 4.421875 0 L 1.15625 0 L 1.15625 -6.703125 L 4.390625 -6.703125 L 4.421875 -6.65625 L 4.390625 -6.484375 L 1.359375 -6.484375 L 1.359375 -3.578125 L 3.875 -3.578125 L 3.90625 -3.53125 L 3.859375 -3.359375 L 1.359375 -3.359375 L 1.359375 -0.203125 L 4.4375 -0.203125 Z M 4.46875 -0.171875 "/></g></g></g><g clip-path="url(#254d37bf19)"><path fill="#34ac71" d="M 224.640625 138.601562 L 186.015625 83.464844 L 124.519531 171.253906 L 151.316406 198.347656 C 151.621094 198.675781 151.925781 198.984375 152.234375 199.277344 L 186.015625 233.429688 L 247.511719 171.253906 L 224.734375 138.734375 L 224.757812 138.710938 C 224.71875 138.671875 224.675781 138.636719 224.640625 138.601562 Z M 219.171875 135.199219 C 216.925781 134.355469 214.429688 133.941406 211.738281 133.996094 C 204.160156 134.148438 191.605469 138.054688 174.558594 155.582031 C 172.960938 153.976562 169.527344 150.910156 164.734375 148.777344 C 159.511719 146.453125 151.820312 144.929688 143.019531 149.246094 L 186.015625 87.867188 Z M 139.636719 154.378906 C 147.484375 148.695312 155.539062 147.613281 163.570312 151.152344 C 168.035156 153.121094 171.28125 156.046875 172.710938 157.488281 C 163.351562 166.953125 152.871094 171.960938 141.550781 172.378906 C 135.242188 172.613281 130.363281 171.277344 128.125 170.507812 L 139.527344 154.230469 Z M 152.972656 196.238281 L 152.871094 196.328125 L 149.066406 192.480469 C 150.210938 192.695312 151.550781 192.84375 153.070312 192.84375 C 158.105469 192.84375 166.273438 191.179688 176.578125 183.246094 C 184.375 177.242188 203.980469 163.769531 217.578125 168.320312 C 223.671875 170.359375 227.984375 175.886719 230.40625 184.75 L 230.691406 184.671875 L 216.621094 198.898438 C 216.777344 194.441406 215.539062 191.160156 212.898438 189.125 C 206.210938 183.964844 192.578125 188.507812 182.324219 193.226562 C 163.019531 202.109375 157.851562 201.738281 152.972656 196.238281 Z M 159.179688 202.707031 C 159.785156 202.785156 160.40625 202.828125 161.054688 202.828125 C 161.515625 202.828125 161.988281 202.808594 162.476562 202.773438 C 167.070312 202.410156 173.339844 200.269531 183.433594 195.625 C 196.992188 189.386719 206.878906 187.820312 211.277344 191.210938 C 213.722656 193.101562 214.515625 196.699219 213.644531 201.90625 L 186.015625 229.835938 Z M 244.234375 170.980469 L 232.585938 182.757812 C 229.851562 173.746094 225.089844 168.046875 218.421875 165.816406 C 204.148438 161.039062 185.0625 173.375 174.957031 181.15625 C 165.351562 188.550781 157.867188 190.15625 153.28125 190.203125 C 148.371094 190.25 145.652344 188.566406 145.625 188.546875 L 145.445312 188.824219 L 130.800781 174.019531 C 133.207031 174.570312 136.363281 175.050781 140.066406 175.050781 C 140.539062 175.050781 141.019531 175.042969 141.507812 175.027344 C 150.0625 174.738281 162.902344 171.625 175.5 158.417969 C 182.609375 150.964844 189.527344 145.316406 196.070312 141.628906 C 201.761719 138.414062 207.050781 136.738281 211.789062 136.640625 C 216.28125 136.550781 220.128906 137.921875 222.910156 140.609375 L 222.9375 140.582031 Z M 244.234375 170.980469 " fill-opacity="1" fill-rule="nonzero"/></g></svg>