<svg xmlns="http://www.w3.org/2000/svg" xmlns:xlink="http://www.w3.org/1999/xlink" width="422" zoomAndPan="magnify" viewBox="0 0 316.5 281.999989" height="376" preserveAspectRatio="xMidYMid meet" version="1.0"><defs><clipPath id="77a7dc64eb"><path d="M 92.679688 75.367188 L 223.820312 75.367188 L 223.820312 206.503906 L 92.679688 206.503906 Z M 92.679688 75.367188 " clip-rule="nonzero"/></clipPath><clipPath id="c41f6b970d"><path d="M 158.25 75.367188 C 122.039062 75.367188 92.679688 104.722656 92.679688 140.9375 C 92.679688 177.148438 122.039062 206.503906 158.25 206.503906 C 194.460938 206.503906 223.820312 177.148438 223.820312 140.9375 C 223.820312 104.722656 194.460938 75.367188 158.25 75.367188 " clip-rule="nonzero"/></clipPath><clipPath id="082211ec85"><path d="M 105 87.71875 L 211 87.71875 L 211 174 L 105 174 Z M 105 87.71875 " clip-rule="nonzero"/></clipPath><clipPath id="bc6208344b"><path d="M 75.5625 153 L 241.261719 153 L 241.261719 181 L 75.5625 181 Z M 75.5625 153 " clip-rule="nonzero"/></clipPath><clipPath id="b6377f836e"><path d="M 109 188 L 207 188 L 207 189.71875 L 109 189.71875 Z M 109 188 " clip-rule="nonzero"/></clipPath></defs><g clip-path="url(#77a7dc64eb)"><g clip-path="url(#c41f6b970d)"><path fill="#efefef" d="M 92.679688 75.367188 L 223.820312 75.367188 L 223.820312 206.503906 L 92.679688 206.503906 Z M 92.679688 75.367188 " fill-opacity="1" fill-rule="nonzero"/></g></g><g clip-path="url(#082211ec85)"><path fill="#ff914d" d="M 158.378906 87.71875 C 140.675781 87.722656 124.160156 96.621094 114.433594 111.394531 L 150.777344 113.832031 L 112.132812 115.230469 C 109.617188 119.867188 107.8125 124.855469 106.785156 130.03125 L 151.105469 133.007812 L 106.078125 134.632812 C 105.878906 136.511719 105.773438 138.394531 105.773438 140.28125 C 105.773438 142.542969 105.917969 144.796875 106.210938 147.039062 L 133.566406 148.875 L 106.652344 149.847656 C 108.246094 158.457031 111.96875 166.527344 117.480469 173.335938 L 199.285156 173.335938 C 200.976562 171.25 202.503906 169.035156 203.855469 166.71875 L 151.027344 164.808594 L 206.703125 161.074219 C 208.339844 157.269531 209.523438 153.289062 210.230469 149.210938 L 170.609375 147.78125 L 210.773438 145.085938 C 210.921875 143.488281 210.992188 141.882812 210.992188 140.277344 C 210.992188 135.164062 210.246094 130.082031 208.777344 125.183594 L 159.871094 123.417969 L 207.023438 120.25 C 205.257812 115.972656 202.933594 111.941406 200.113281 108.269531 L 161.855469 106.890625 L 196.953125 104.53125 C 187.003906 93.8125 173.027344 87.71875 158.386719 87.71875 C 158.382812 87.71875 158.378906 87.71875 158.378906 87.71875 Z M 158.378906 87.71875 " fill-opacity="1" fill-rule="nonzero"/></g><path fill="#000000" d="M 122.898438 114.109375 C 116.949219 114.0625 122.34375 120.433594 126.386719 127.425781 C 124.363281 123.699219 120.351562 115.925781 121.566406 115.1875 C 123.835938 113.808594 149.207031 120.988281 170.558594 141.65625 C 170.554688 141.765625 170.585938 141.832031 170.652344 141.839844 C 170.679688 141.84375 170.710938 141.839844 170.738281 141.832031 C 172 143.058594 173.25 144.335938 174.476562 145.660156 C 174.25 145.84375 174.0625 146.085938 174.019531 146.375 C 173.898438 147.1875 173.492188 147.632812 174.101562 148.160156 C 174.707031 148.6875 176.695312 151.445312 177.507812 151.6875 C 178.320312 151.929688 178.886719 151.445312 178.886719 151.445312 C 178.886719 151.445312 178.402344 153.429688 178.074219 154.6875 C 177.753906 155.941406 174.421875 160.925781 174.140625 161.578125 C 173.859375 162.226562 173.492188 163.480469 173.695312 163.726562 C 173.902344 163.96875 174.753906 164.375 174.546875 164.738281 C 174.347656 165.101562 173.820312 165.671875 173.941406 166.035156 C 174.0625 166.402344 174.347656 168.507812 174.226562 169.238281 C 174.101562 169.964844 173.128906 169.523438 173.332031 169.886719 C 173.535156 170.25 174.304688 170.496094 174.304688 170.496094 C 174.304688 170.496094 173.980469 171.464844 174.183594 171.628906 C 174.386719 171.792969 174.46875 172.15625 174.46875 172.15625 C 174.46875 172.15625 172.03125 173.859375 171.789062 174.34375 C 171.546875 174.828125 170.410156 174.953125 173.535156 175.074219 C 176.65625 175.195312 178.035156 175.722656 178.117188 175.074219 C 178.195312 174.425781 177.753906 172.886719 177.753906 172.886719 C 177.753906 172.886719 177.144531 170.699219 178.074219 169.441406 L 178.5625 169.199219 C 178.5625 169.199219 178.847656 171.183594 179.777344 171.875 C 180.710938 172.5625 180.957031 174.183594 181.28125 174.46875 C 181.601562 174.753906 181.480469 175.886719 181.765625 176.089844 C 182.050781 176.292969 182.132812 176.414062 181.929688 176.695312 C 181.726562 176.980469 178.480469 178.398438 178.605469 178.683594 C 178.726562 178.96875 183.636719 179.089844 186.59375 178.480469 C 186.59375 178.480469 185.296875 174.183594 184.808594 173.011719 C 184.324219 171.832031 183.351562 168.632812 182.945312 167.78125 C 182.539062 166.933594 181.765625 166.242188 181.765625 166.242188 C 181.765625 166.242188 182.699219 164.945312 182.902344 164.578125 C 183.105469 164.214844 182.699219 163 184.078125 160.203125 C 184.078125 160.203125 184.242188 159.066406 184.488281 158.703125 C 184.730469 158.335938 186.152344 157.203125 186.839844 155.703125 C 187.527344 154.203125 186.636719 151.203125 186.636719 150.554688 C 186.636719 149.90625 187.042969 148.449219 187.042969 148.449219 C 187.042969 148.449219 188.101562 144.882812 189.152344 143.464844 L 187.773438 142.855469 C 187.773438 142.855469 188.746094 136.613281 185.175781 136.734375 C 185.175781 136.734375 183.71875 133.859375 183.675781 132.765625 C 183.636719 131.671875 182.296875 129.929688 180.429688 130.332031 C 178.566406 130.734375 177.628906 131.871094 177.957031 133.207031 C 177.957031 133.207031 176.820312 133.859375 176.984375 134.34375 C 177.148438 134.828125 178.199219 134.140625 178.199219 134.140625 C 178.199219 134.140625 178.644531 135.925781 179.171875 136.574219 C 179.703125 137.226562 179.824219 138.195312 180.472656 138.441406 C 181.121094 138.683594 181.609375 139.25 181.527344 139.617188 C 181.527344 139.617188 180.921875 140.832031 180.636719 141.117188 C 180.351562 141.398438 179.984375 142.007812 179.984375 142.007812 C 179.984375 142.007812 178.199219 141.683594 176.902344 140.871094 C 175.605469 140.0625 172.886719 139.128906 171.957031 139.617188 C 171.578125 139.8125 171.238281 140.207031 170.984375 140.609375 C 154.828125 125.207031 134.011719 116.050781 128.019531 114.976562 C 125.773438 114.386719 124.105469 114.117188 122.898438 114.109375 Z M 126.386719 127.425781 C 127.03125 128.617188 127.476562 129.402344 127.476562 129.402344 C 127.128906 128.738281 126.761719 128.078125 126.386719 127.425781 Z M 171.625 141.109375 C 171.625 141.109375 171.609375 141.140625 171.585938 141.1875 C 171.582031 141.179688 171.578125 141.179688 171.574219 141.171875 C 171.605469 141.136719 171.625 141.109375 171.625 141.109375 Z M 173.878906 141.78125 C 174.101562 141.78125 174.3125 141.808594 174.507812 141.878906 C 175.398438 142.203125 177.46875 143.90625 178.605469 144.433594 L 179.210938 144.71875 C 179.210938 144.71875 178.320312 146.828125 177.832031 147.355469 C 177.753906 147.441406 177.65625 147.515625 177.554688 147.570312 C 177.246094 147.207031 176.9375 146.84375 176.621094 146.484375 C 176.71875 146.238281 176.769531 146.003906 176.617188 145.773438 C 176.292969 145.285156 175.84375 145.527344 175.601562 145.328125 C 175.59375 145.320312 175.589844 145.316406 175.582031 145.316406 C 174.542969 144.171875 173.472656 143.054688 172.378906 141.964844 C 172.820312 141.90625 173.367188 141.773438 173.878906 141.78125 Z M 173.878906 141.78125 " fill-opacity="1" fill-rule="nonzero"/><path fill="#000000" d="M 231.183594 180.761719 C 231.183594 181.28125 198.59375 181.703125 158.390625 181.703125 C 118.1875 181.703125 85.59375 181.28125 85.59375 180.761719 C 85.59375 180.238281 118.1875 179.816406 158.390625 179.816406 C 198.59375 179.816406 231.183594 180.242188 231.183594 180.761719 Z M 231.183594 180.761719 " fill-opacity="1" fill-rule="nonzero"/><g clip-path="url(#bc6208344b)"><path fill="#000000" d="M 216.882812 167.753906 C 218.109375 167.402344 219.6875 167.285156 219.6875 167.285156 C 219.6875 167.285156 221.855469 166.058594 222.902344 165.472656 C 223.957031 164.890625 232.671875 159.515625 232.671875 159.515625 C 237.175781 155.714844 238.113281 153.730469 238.113281 153.730469 L 241.15625 153.84375 L 239.398438 160.273438 C 230.273438 175.347656 214.597656 180.273438 214.597656 180.273438 C 184.820312 181.265625 98.078125 180.550781 98.078125 180.550781 L 97.84375 171.375 C 94.273438 167.574219 79.066406 159.921875 78.773438 159.6875 C 78.480469 159.453125 75.613281 154.605469 75.613281 154.605469 L 77.722656 153.496094 C 106.121094 169.351562 164.535156 178.5 216.882812 167.753906 Z M 216.882812 167.753906 " fill-opacity="1" fill-rule="nonzero"/></g><path fill="#000000" d="M 224.894531 184.894531 C 224.894531 185.367188 195.117188 185.753906 158.386719 185.753906 C 121.652344 185.753906 91.878906 185.367188 91.878906 184.894531 C 91.878906 184.421875 121.652344 184.035156 158.386719 184.035156 C 195.117188 184.035156 224.894531 184.417969 224.894531 184.894531 Z M 224.894531 184.894531 " fill-opacity="1" fill-rule="nonzero"/><g clip-path="url(#b6377f836e)"><path fill="#000000" d="M 206.832031 189.101562 C 206.832031 189.445312 185.144531 189.726562 158.390625 189.726562 C 131.632812 189.726562 109.945312 189.445312 109.945312 189.101562 C 109.945312 188.753906 131.632812 188.472656 158.390625 188.472656 C 185.144531 188.472656 206.832031 188.753906 206.832031 189.101562 Z M 206.832031 189.101562 " fill-opacity="1" fill-rule="nonzero"/></g></svg>